<svg width="38" height="46" viewBox="0 0 38 46" fill="none" xmlns="http://www.w3.org/2000/svg">
<path d="M20.5664 22.0268C19.7657 23.0355 18.2343 23.0355 17.4336 22.0268L12.0486 15.2435C11.0081 13.9328 11.9415 12 13.615 12L24.385 12C26.0585 12 26.9919 13.9328 25.9514 15.2435L20.5664 22.0268Z" fill="#F2F2F7" fill-opacity="0.53"/>
<path d="M19.7777 9.03783C19.3775 9.533 18.6225 9.533 18.2223 9.03783L14.2542 4.12862C13.7256 3.47468 14.1911 2.5 15.0319 2.5L22.9681 2.5C23.8089 2.5 24.2744 3.47468 23.7458 4.12862L19.7777 9.03783Z" fill="#F2F2F7" fill-opacity="0.25"/>
<path d="M22.1486 41.9816C20.5471 44.0255 17.4529 44.0255 15.8514 41.9816L7.61277 31.4671C5.5557 28.8417 7.42611 25 10.7614 25L27.2386 25C30.5739 25 32.4443 28.8417 30.3872 31.4671L22.1486 41.9816Z" fill="#F2F2F7"/>
</svg>
